<svg width="129" height="130" viewBox="0 0 129 130" fill="none" xmlns="http://www.w3.org/2000/svg">
<path d="M16.125 48.875C16.125 42.9379 20.9379 38.125 26.875 38.125H31.8718C35.4661 38.125 38.8226 36.3287 40.8163 33.338L45.1837 26.787C47.1774 23.7963 50.5339 22 54.1282 22H74.8718C78.4661 22 81.8226 23.7963 83.8163 26.787L88.1837 33.338C90.1774 36.3287 93.5339 38.125 97.1282 38.125H102.125C108.062 38.125 112.875 42.9379 112.875 48.875V97.25C112.875 103.187 108.062 108 102.125 108H26.875C20.9379 108 16.125 103.187 16.125 97.25V48.875Z" stroke="black" stroke-width="6" stroke-linecap="round" stroke-linejoin="round"/>
<path d="M80.625 70.375C80.625 79.2806 73.4056 86.5 64.5 86.5C55.5944 86.5 48.375 79.2806 48.375 70.375C48.375 61.4694 55.5944 54.25 64.5 54.25C73.4056 54.25 80.625 61.4694 80.625 70.375Z" stroke="black" stroke-width="6" stroke-linecap="round" stroke-linejoin="round"/>
<line x1="33.4857" y1="38.1821" x2="101.45" y2="38.1821" stroke="black" stroke-width="6"/>
<path d="M101.543 50.4866C102.969 50.4722 104.114 49.2973 104.1 47.8619C104.086 46.4268 102.918 45.2748 101.491 45.2892C100.065 45.3036 98.92 46.4785 98.9343 47.9138C98.941 48.594 99.2125 49.2442 99.6905 49.7254C100.191 50.2043 100.852 50.4761 101.543 50.4866Z" fill="black"/>
<path d="M80.6712 50.4862H91.1071C92.548 50.4862 93.716 49.311 93.716 47.8613C93.716 46.4115 92.548 45.2363 91.1071 45.2363H80.6712C79.2303 45.2363 78.0623 46.4115 78.0623 47.8613C78.0623 49.311 79.2303 50.4862 80.6712 50.4862Z" fill="black"/>
</svg>
