<svg width="25" height="25" viewBox="0 0 25 25" fill="none" xmlns="http://www.w3.org/2000/svg">
<path fill-rule="evenodd" clip-rule="evenodd" d="M6.47086 3.47095C7.02314 3.47095 7.47086 3.91866 7.47086 4.47095V13.6417C8.63605 14.0535 9.47086 15.1647 9.47086 16.4709C9.47086 17.7772 8.63605 18.8884 7.47086 19.3002V20.4709C7.47086 21.0232 7.02314 21.4709 6.47086 21.4709C5.91857 21.4709 5.47086 21.0232 5.47086 20.4709V19.3002C4.30566 18.8884 3.47086 17.7772 3.47086 16.4709C3.47086 15.1647 4.30566 14.0535 5.47086 13.6417V4.47095C5.47086 3.91866 5.91857 3.47095 6.47086 3.47095ZM12.4709 3.47095C13.0231 3.47095 13.4709 3.91866 13.4709 4.47095V5.64165C14.636 6.05349 15.4709 7.16473 15.4709 8.47095C15.4709 9.77717 14.636 10.8884 13.4709 11.3002V20.4709C13.4709 21.0232 13.0231 21.4709 12.4709 21.4709C11.9186 21.4709 11.4709 21.0232 11.4709 20.4709V11.3002C10.3057 10.8884 9.47086 9.77717 9.47086 8.47095C9.47086 7.16473 10.3057 6.05349 11.4709 5.64165V4.47095C11.4709 3.91866 11.9186 3.47095 12.4709 3.47095ZM18.4709 3.47095C19.0231 3.47095 19.4709 3.91866 19.4709 4.47095V13.6417C20.636 14.0535 21.4709 15.1647 21.4709 16.4709C21.4709 17.7772 20.636 18.8884 19.4709 19.3002V20.4709C19.4709 21.0232 19.0231 21.4709 18.4709 21.4709C17.9186 21.4709 17.4709 21.0232 17.4709 20.4709V19.3002C16.3057 18.8884 15.4709 17.7772 15.4709 16.4709C15.4709 15.1647 16.3057 14.0535 17.4709 13.6417V4.47095C17.4709 3.91866 17.9186 3.47095 18.4709 3.47095ZM12.4709 7.47095C11.9186 7.47095 11.4709 7.91866 11.4709 8.47095C11.4709 9.02323 11.9186 9.47095 12.4709 9.47095C13.0231 9.47095 13.4709 9.02323 13.4709 8.47095C13.4709 7.91866 13.0231 7.47095 12.4709 7.47095ZM6.47086 15.4709C5.91857 15.4709 5.47086 15.9187 5.47086 16.4709C5.47086 17.0232 5.91857 17.4709 6.47086 17.4709C7.02314 17.4709 7.47086 17.0232 7.47086 16.4709C7.47086 15.9187 7.02314 15.4709 6.47086 15.4709ZM18.4709 15.4709C17.9186 15.4709 17.4709 15.9187 17.4709 16.4709C17.4709 17.0232 17.9186 17.4709 18.4709 17.4709C19.0231 17.4709 19.4709 17.0232 19.4709 16.4709C19.4709 15.9187 19.0231 15.4709 18.4709 15.4709Z" fill="#111827"/>
</svg>
