<svg width="25" height="24" viewBox="0 0 25 24" fill="none" xmlns="http://www.w3.org/2000/svg">
<path fill-rule="evenodd" clip-rule="evenodd" d="M10.4708 4C7.15712 4 4.47083 6.68629 4.47083 10C4.47083 13.3137 7.15712 16 10.4708 16C13.7845 16 16.4708 13.3137 16.4708 10C16.4708 6.68629 13.7845 4 10.4708 4ZM2.47083 10C2.47083 5.58172 6.05255 2 10.4708 2C14.8891 2 18.4708 5.58172 18.4708 10C18.4708 11.8487 17.8437 13.551 16.7907 14.9056L22.1779 20.2929C22.5685 20.6834 22.5685 21.3166 22.1779 21.7071C21.7874 22.0976 21.1542 22.0976 20.7637 21.7071L15.3765 16.3199C14.0218 17.3729 12.3195 18 10.4708 18C6.05255 18 2.47083 14.4183 2.47083 10Z" fill="#111827"/>
</svg>
