<svg width="27" height="28" viewBox="0 0 27 28" fill="none" xmlns="http://www.w3.org/2000/svg">
<path fill-rule="evenodd" clip-rule="evenodd" d="M21.309 6.2111C20.6767 5.57881 19.6516 5.57881 19.0193 6.2111L18.1635 7.06693L20.4532 9.35664L21.309 8.5008C21.9413 7.86852 21.9413 6.84338 21.309 6.2111ZM18.9267 10.8831L16.637 8.5934L4.51321 20.7172V23.0452H6.76457L18.9267 10.8831ZM17.4928 4.68462C18.9682 3.20929 21.3601 3.20929 22.8355 4.68462C24.3108 6.15996 24.3108 8.55194 22.8355 10.0273L7.9749 24.8879C7.77247 25.0903 7.49793 25.204 7.21166 25.204H3.43383C2.83771 25.204 2.35445 24.7207 2.35445 24.1246V20.2701C2.35445 19.9838 2.46817 19.7093 2.6706 19.5068L17.4928 4.68462Z" fill="#111827"/>
</svg>
